<svg width="201" height="44" viewBox="0 0 201 44" fill="none" xmlns="http://www.w3.org/2000/svg">
<path fill-rule="evenodd" clip-rule="evenodd" d="M9.89949 22L19.2323 31.3328L28.5651 22L19.2323 12.6672L9.89949 22ZM4.24264 17.7574C1.89949 20.1005 1.8995 23.8995 4.24264 26.2426L14.9897 36.9897C17.3328 39.3328 21.1318 39.3328 23.4749 36.9896L34.2219 26.2426C36.5651 23.8995 36.5651 20.1005 34.2219 17.7574L23.4749 7.01035C21.1318 4.6672 17.3328 4.66721 14.9896 7.01035L4.24264 17.7574Z" fill="#6942BB"/>
<path d="M51.6166 32.384C50.1873 32.384 48.9819 32.2453 48.0006 31.968C47.0193 31.6693 46.2299 31.2 45.6326 30.56C45.0353 29.8987 44.5979 29.0347 44.3206 27.968C44.0433 26.88 43.9046 25.5573 43.9046 24C43.9046 22.4213 44.0433 21.0987 44.3206 20.032C44.5979 18.944 45.0353 18.08 45.6326 17.44C46.2299 16.7787 47.0193 16.3093 48.0006 16.032C48.9819 15.7547 50.1873 15.616 51.6166 15.616C53.0459 15.616 54.2513 15.7547 55.2326 16.032C56.2353 16.3093 57.0246 16.7787 57.6006 17.44C58.1979 18.08 58.6246 18.944 58.8806 20.032C59.1579 21.0987 59.2966 22.4213 59.2966 24C59.2966 25.5573 59.1579 26.88 58.8806 27.968C58.6246 29.0347 58.1979 29.8987 57.6006 30.56C57.0033 31.2 56.2139 31.6693 55.2326 31.968C54.2513 32.2453 53.0459 32.384 51.6166 32.384ZM48.9926 28.704H52.8326C53.3873 28.704 53.7606 28.6507 53.9526 28.544C54.1446 28.416 54.2406 28.192 54.2406 27.872V19.296H50.3686C49.8353 19.296 49.4726 19.36 49.2806 19.488C49.0886 19.5947 48.9926 19.808 48.9926 20.128V28.704ZM67.0491 32.384C65.9611 32.384 65.1504 32.1493 64.6171 31.68C64.1051 31.2107 63.8491 30.4747 63.8491 29.472V12.992L68.5851 11.808V28.544C68.9264 28.5867 69.2571 28.6293 69.5771 28.672C69.8971 28.6933 70.2704 28.7147 70.6971 28.736L70.4411 31.968C69.7584 32.1173 69.1291 32.224 68.5531 32.288C67.9984 32.352 67.4971 32.384 67.0491 32.384ZM61.8971 19.136V16H71.1451V19.136H61.8971ZM78.8051 32.384C76.9704 32.384 75.6371 31.9893 74.8051 31.2C73.9731 30.3893 73.5571 29.088 73.5571 27.296C73.5571 26.2507 73.6851 25.3973 73.9411 24.736C74.2184 24.0533 74.6771 23.52 75.3171 23.136C75.9571 22.752 76.8531 22.4853 78.0051 22.336C79.1784 22.1867 80.6611 22.112 82.4531 22.112H84.1171V24.736H80.3411C79.4238 24.736 78.7944 24.8533 78.4531 25.088C78.1118 25.3013 77.9411 25.7173 77.9411 26.336V29.024H80.7891C81.7064 29.024 82.3251 28.9173 82.6451 28.704C82.9864 28.4907 83.1571 28.0853 83.1571 27.488V19.424C82.6024 19.2533 81.7918 19.168 80.7251 19.168C79.8291 19.168 78.8904 19.232 77.9091 19.36C76.9491 19.488 75.9358 19.6907 74.8691 19.968L74.2931 16.64C74.9544 16.4053 75.6691 16.2133 76.4371 16.064C77.2264 15.9147 78.0371 15.808 78.8691 15.744C79.7011 15.6587 80.5224 15.616 81.3331 15.616C82.9118 15.616 84.1811 15.7867 85.1411 16.128C86.1224 16.448 86.8264 16.9813 87.2531 17.728C87.7011 18.4533 87.9251 19.424 87.9251 20.64V32H85.6211L84.4051 30.4C83.6158 31.0613 82.7518 31.5627 81.8131 31.904C80.8958 32.224 79.8931 32.384 78.8051 32.384ZM98.8591 24.96H97.0351V32H92.2671V11.2L97.0351 10.72V21.952H98.8271L101.707 16H106.731L102.827 23.52L106.891 32H101.931L98.8591 24.96ZM123.601 16V32H121.265L120.049 30.4C119.174 31.0613 118.204 31.5627 117.137 31.904C116.092 32.224 114.95 32.384 113.713 32.384C112.156 32.384 111.014 32.0747 110.289 31.456C109.564 30.816 109.201 29.8027 109.201 28.416V16H113.969V29.024H116.817C117.585 29.024 118.108 28.928 118.385 28.736C118.684 28.5227 118.833 28.16 118.833 27.648V16H123.601ZM128.08 32V16H130.416L131.632 17.6C132.506 16.9387 133.445 16.448 134.448 16.128C135.472 15.7867 136.592 15.616 137.808 15.616C139.301 15.616 140.453 15.8933 141.264 16.448C142.074 16.9813 142.48 17.76 142.48 18.784V32H137.712V19.52H134.864C134.117 19.52 133.594 19.6267 133.296 19.84C132.997 20.032 132.848 20.3947 132.848 20.928V32H128.08ZM153.71 32.384C152.281 32.384 151.076 32.2453 150.094 31.968C149.113 31.6693 148.324 31.2 147.726 30.56C147.129 29.8987 146.692 29.0347 146.414 27.968C146.137 26.88 145.998 25.5573 145.998 24C145.998 22.4213 146.137 21.0987 146.414 20.032C146.692 18.944 147.129 18.08 147.726 17.44C148.324 16.7787 149.113 16.3093 150.094 16.032C151.076 15.7547 152.281 15.616 153.71 15.616C155.14 15.616 156.345 15.7547 157.326 16.032C158.329 16.3093 159.118 16.7787 159.694 17.44C160.292 18.08 160.718 18.944 160.974 20.032C161.252 21.0987 161.39 22.4213 161.39 24C161.39 25.5573 161.252 26.88 160.974 27.968C160.718 29.0347 160.292 29.8987 159.694 30.56C159.097 31.2 158.308 31.6693 157.326 31.968C156.345 32.2453 155.14 32.384 153.71 32.384ZM151.086 28.704H154.926C155.481 28.704 155.854 28.6507 156.046 28.544C156.238 28.416 156.334 28.192 156.334 27.872V19.296H152.462C151.929 19.296 151.566 19.36 151.374 19.488C151.182 19.5947 151.086 19.808 151.086 20.128V28.704ZM169.143 32.384C168.055 32.384 167.244 32.1493 166.711 31.68C166.199 31.2107 165.943 30.4747 165.943 29.472V12.992L170.679 11.808V28.544C171.02 28.5867 171.351 28.6293 171.671 28.672C171.991 28.6933 172.364 28.7147 172.791 28.736L172.535 31.968C171.852 32.1173 171.223 32.224 170.647 32.288C170.092 32.352 169.591 32.384 169.143 32.384ZM163.991 19.136V16H173.239V19.136H163.991ZM183.139 32.384C181.816 32.384 180.686 32.2453 179.747 31.968C178.808 31.6693 178.051 31.1893 177.475 30.528C176.899 29.8667 176.472 29.0027 176.195 27.936C175.939 26.8693 175.811 25.5573 175.811 24C175.811 21.952 176.067 20.32 176.579 19.104C177.091 17.8667 177.902 16.9813 179.011 16.448C180.12 15.8933 181.592 15.616 183.427 15.616C185.219 15.616 186.616 15.7653 187.619 16.064C188.622 16.3627 189.326 16.8853 189.731 17.632C190.158 18.3573 190.371 19.3813 190.371 20.704C190.371 21.7493 190.232 22.6133 189.955 23.296C189.678 23.9573 189.187 24.48 188.483 24.864C187.8 25.248 186.84 25.5147 185.603 25.664C184.387 25.8133 182.819 25.888 180.899 25.888H179.939V23.264H183.619C184.558 23.264 185.198 23.1573 185.539 22.944C185.902 22.7093 186.083 22.2827 186.083 21.664V19.2H183.331C182.414 19.2 181.774 19.3067 181.411 19.52C181.07 19.7333 180.899 20.1493 180.899 20.768V28.576C181.262 28.6613 181.667 28.7253 182.115 28.768C182.563 28.8107 183.107 28.832 183.747 28.832C184.643 28.832 185.528 28.768 186.403 28.64C187.299 28.512 188.291 28.3093 189.379 28.032L189.955 31.36C189.016 31.7013 187.96 31.9573 186.787 32.128C185.614 32.2987 184.398 32.384 183.139 32.384ZM193.401 29.44C193.401 28.4587 193.572 27.744 193.913 27.296C194.276 26.848 195.033 26.624 196.185 26.624C197.316 26.624 198.052 26.848 198.393 27.296C198.756 27.744 198.937 28.4587 198.937 29.44C198.937 30.4427 198.756 31.1573 198.393 31.584C198.052 31.9893 197.316 32.192 196.185 32.192C195.054 32.192 194.308 31.9893 193.945 31.584C193.582 31.1573 193.401 30.4427 193.401 29.44Z" fill="#FFFBFF"/>
</svg>
